<?xml version="1.0" encoding="utf-8"?>
<!-- Generator: Adobe Illustrator 23.0.1, SVG Export Plug-In . SVG Version: 6.00 Build 0)  -->
<svg version="1.1" id="Capa_1" xmlns="http://www.w3.org/2000/svg" xmlns:xlink="http://www.w3.org/1999/xlink" x="0px" y="0px"
	 viewBox="0 0 26.8 26.7" style="enable-background:new 0 0 26.8 26.7;" xml:space="preserve">
<style type="text/css">
	.st0{clip-path:url(#SVGID_2_);}
	.st1{clip-path:url(#SVGID_4_);}
	.st2{clip-path:url(#SVGID_6_);}
	.st3{clip-path:url(#SVGID_8_);}
	.st4{clip-path:url(#SVGID_10_);}
	.st5{fill:#46466E;}
	.st6{fill:#FFFFFF;}
	.st7{fill:#004732;}
	.st8{fill:#EFAF62;}
	.st9{clip-path:url(#SVGID_12_);}
	.st10{fill:#F1AB5D;}
	.st11{fill:#3CAE6C;}
	.st12{fill:url(#SVGID_13_);}
	.st13{fill:#49B2A5;}
	.st14{fill:#54EFA5;}
	.st15{fill:#FF914B;}
	.st16{fill:#E67332;}
</style>
<g>
	<defs>
		<rect id="SVGID_5_" x="-286.4" y="-153.2" width="177.4" height="177.4"/>
	</defs>
	<clipPath id="SVGID_2_">
		<use xlink:href="#SVGID_5_"  style="overflow:visible;"/>
	</clipPath>
	<g id="jfB3Ol_1_" class="st0">
		
			<image style="overflow:visible;" width="1880" height="1254" id="jfB3Ol_2_" xlink:href="2D6A1F4F1EFB11D3.jpg"  transform="matrix(0.537 0 0 0.537 -713.1077 -233.8906)">
		</image>
	</g>
</g>
<g>
	<path class="st7" d="M24.7,16.7c-0.4,0-0.7,0.3-0.7,0.7v5.9c0,1.1-0.9,2-2,2H3.3c-1.1,0-2-0.9-2-2V5.9c0-1.1,0.9-2,2-2h5.9
		c0.4,0,0.7-0.3,0.7-0.7c0-0.4-0.3-0.7-0.7-0.7H3.3C1.5,2.6,0,4.1,0,5.9v17.4c0,1.8,1.5,3.3,3.3,3.3h18.7c1.8,0,3.3-1.5,3.3-3.3
		v-5.9C25.4,17,25.1,16.7,24.7,16.7z"/>
	<path class="st7" d="M25.1,0.9c-1.2-1.2-3.1-1.2-4.2,0L9,12.8c-0.1,0.1-0.1,0.2-0.2,0.3l-1.6,5.7c-0.1,0.2,0,0.5,0.2,0.7
		c0.2,0.2,0.4,0.2,0.7,0.2l5.7-1.6c0.1,0,0.2-0.1,0.3-0.2L25.9,5.9c1.2-1.2,1.2-3.1,0-4.2L25.1,0.9z M10.4,13.2l9.7-9.7l3.1,3.1
		l-9.7,9.7L10.4,13.2z M9.8,14.5l2.5,2.5l-3.5,1L9.8,14.5z M25,5l-0.7,0.7l-3.1-3.1l0.7-0.7c0.7-0.7,1.7-0.7,2.4,0L25,2.6
		C25.6,3.3,25.6,4.3,25,5z"/>
</g>
</svg>
