<?xml version="1.0" encoding="utf-8"?>
<!-- Generator: Adobe Illustrator 23.0.1, SVG Export Plug-In . SVG Version: 6.00 Build 0)  -->
<svg version="1.1" id="Capa_1" xmlns="http://www.w3.org/2000/svg" xmlns:xlink="http://www.w3.org/1999/xlink" x="0px" y="0px"
	 viewBox="0 0 40 40" style="enable-background:new 0 0 40 40;" xml:space="preserve">
<style type="text/css">
	.st0{clip-path:url(#SVGID_2_);}
	.st1{clip-path:url(#SVGID_4_);}
	.st2{clip-path:url(#SVGID_6_);}
	.st3{clip-path:url(#SVGID_8_);}
	.st4{clip-path:url(#SVGID_10_);}
	.st5{fill:#46466E;}
	.st6{fill:#FFFFFF;}
	.st7{fill:#004732;}
	.st8{fill:#EFAF62;}
	.st9{clip-path:url(#SVGID_12_);}
	.st10{fill:#F1AB5D;}
	.st11{fill:#3CAE6C;}
	.st12{fill:url(#SVGID_13_);}
	.st13{fill:#49B2A5;}
	.st14{fill:#54EFA5;}
	.st15{fill:#FF914B;}
	.st16{fill:#E67332;}
	.st17{fill:#A93E37;}
	.st18{fill:#EC849E;}
	.st19{fill:url(#SVGID_14_);}
	.st20{fill-rule:evenodd;clip-rule:evenodd;fill:#A93E37;}
</style>
<path class="st6" d="M20,0C9,0,0,9,0,20s9,20,20,20s20-9,20-20S31,0,20,0z M27,10.3c-0.1,0-0.1,0-0.2,0c-0.9,0-1.7,0-2.6,0
	c-0.4,0-0.7,0.1-1.1,0.1c-0.6,0.1-1,0.5-1.1,1.1c0,0.3-0.1,0.5-0.1,0.8c0,0.9,0,1.9,0,2.8c0,0,0,0.1,0,0.1c1.7,0,3.3,0,4.9,0
	c-0.2,1.7-0.4,3.3-0.6,4.9c-1.5,0-2.9,0-4.4,0c0,4.9,0,9.9,0,14.8c-2,0-3.9,0-5.9,0c0-4.9,0-9.9,0-14.8c-1.3,0-2.6,0-4,0
	c0-1.6,0-3.3,0-4.9c1.3,0,2.6,0,4,0c0-0.1,0-0.1,0-0.2c0-0.9,0-1.9,0-2.8c0-0.7,0.1-1.5,0.2-2.2C16.7,9,17.2,8,18,7.2
	c1.1-1.1,2.4-1.6,3.8-1.8c0.2,0,0.5-0.1,0.7-0.1c1.5,0,3,0,4.5,0C27,7,27,8.7,27,10.3z"/>
</svg>
