<?xml version="1.0" encoding="utf-8"?>
<!-- Generator: Adobe Illustrator 23.0.1, SVG Export Plug-In . SVG Version: 6.00 Build 0)  -->
<svg version="1.1" id="Capa_1" xmlns="http://www.w3.org/2000/svg" xmlns:xlink="http://www.w3.org/1999/xlink" x="0px" y="0px"
	 viewBox="0 0 40.1 40.1" style="enable-background:new 0 0 40.1 40.1;" xml:space="preserve">
<style type="text/css">
	.st0{clip-path:url(#SVGID_2_);}
	.st1{clip-path:url(#SVGID_4_);}
	.st2{clip-path:url(#SVGID_6_);}
	.st3{clip-path:url(#SVGID_8_);}
	.st4{clip-path:url(#SVGID_10_);}
	.st5{fill:#46466E;}
	.st6{fill:#FFFFFF;}
	.st7{fill:#004732;}
	.st8{fill:#EFAF62;}
	.st9{clip-path:url(#SVGID_12_);}
	.st10{fill:#F1AB5D;}
	.st11{fill:#3CAE6C;}
	.st12{fill:url(#SVGID_13_);}
	.st13{fill:#49B2A5;}
	.st14{fill:#54EFA5;}
	.st15{fill:#FF914B;}
	.st16{fill:#E67332;}
	.st17{fill:#A93E37;}
	.st18{fill:#EC849E;}
	.st19{fill:url(#SVGID_14_);}
	.st20{fill-rule:evenodd;clip-rule:evenodd;fill:#A93E37;}
</style>
<g id="_x30_b1taq.tif_2_">
	<g>
		<path class="st6" d="M40.1,20.1c0,5.4-1.9,10.1-5.7,14c-3.7,3.8-8.3,5.8-13.6,6c-5.9,0.2-11-1.8-15.1-6C1.9,30.2,0,25.5,0,20
			C0,14.4,2,9.6,6.1,5.7c4-3.9,8.9-5.8,14.5-5.7C31.3,0.2,40.2,9.1,40.1,20.1z M8.4,20.1C8.4,20.1,8.4,20.1,8.4,20.1
			c0,1.8,0.1,3.6,0.1,5.3c0,0.9,0.3,1.7,0.6,2.5c0.2,0.5,0.6,1,0.9,1.5c0.5,0.6,1.1,1,1.7,1.4c0.5,0.3,1.1,0.5,1.7,0.6
			c0.7,0.1,1.5,0.2,2.2,0.2c0.6,0,1.3,0,2,0c1.3,0,2.5,0,3.8,0c0.9,0,1.8,0,2.7-0.1c1.1,0,2.2-0.1,3.3-0.5c0.7-0.2,1.4-0.6,2-1.1
			c0.4-0.3,0.7-0.7,1-1.1c0.3-0.4,0.5-0.8,0.7-1.2c0.2-0.6,0.4-1.2,0.5-1.8c0.1-0.9,0.2-1.9,0.2-2.8c0-2.7,0-5.4-0.1-8.1
			c0-0.9-0.2-1.7-0.5-2.6c-0.2-0.6-0.5-1.2-1-1.7c-0.3-0.3-0.6-0.6-0.9-0.9c-0.4-0.4-0.9-0.7-1.5-0.9c-0.7-0.2-1.4-0.4-2.1-0.5
			c-0.7-0.1-1.5-0.1-2.2-0.1c-2.6,0-5.3,0-7.9,0c-0.3,0-0.7,0-1,0.1c-0.7,0.1-1.3,0.3-2,0.4c-0.6,0.2-1.2,0.5-1.7,0.9
			c-0.4,0.3-0.8,0.7-1.1,1.2c-0.5,0.6-0.7,1.3-1,1.9c-0.4,1.2-0.3,2.4-0.4,3.6C8.4,17.8,8.4,18.9,8.4,20.1z"/>
		<path class="st6" d="M29.6,20.3c0,1.2,0,2.5,0,3.7c0,0.7-0.1,1.4-0.2,2.1c0,0.3-0.2,0.6-0.4,0.9c-0.1,0.3-0.2,0.5-0.4,0.8
			c-0.4,0.5-0.9,1-1.5,1.2c-0.4,0.1-0.8,0.3-1.2,0.4c-0.8,0.1-1.7,0.2-2.5,0.2c-0.8,0-1.6,0-2.4,0c-1.6,0-3.2,0-4.8,0
			c-0.5,0-1,0-1.6-0.1c-0.2,0-0.5-0.1-0.7-0.1c-0.7-0.1-1.3-0.4-1.8-0.8c-0.4-0.3-0.8-0.7-1-1.2c-0.1-0.4-0.3-0.8-0.5-1.2
			c-0.1-0.3-0.1-0.7-0.1-1.1c-0.2-2.5-0.1-5.1-0.1-7.6c0-0.9,0.1-1.9,0.1-2.8c0-0.5,0.2-1,0.3-1.4c0.3-0.8,0.9-1.5,1.6-2
			c0.5-0.3,1.1-0.5,1.7-0.6c0.6-0.1,1.1-0.1,1.7-0.1c2.3,0,4.6,0,6.9,0c0.9,0,1.8,0,2.6,0.1c0.9,0.1,1.8,0.4,2.5,1.1
			c0.5,0.5,0.9,1.1,1.1,1.8c0.2,0.7,0.3,1.4,0.3,2.1C29.6,17.2,29.7,18.8,29.6,20.3C29.7,20.3,29.7,20.3,29.6,20.3z M26,20.1
			c0.1-3.3-2.7-6-6-6c-3.4,0-5.9,2.6-6,5.8c-0.1,3.4,2.7,6.1,6,6.1C23.3,26,26.1,23.3,26,20.1z M27.7,13.9c0.1-0.7-0.5-1.5-1.5-1.4
			c-0.6,0-1.3,0.6-1.2,1.6c0,0.5,0.6,1.2,1.4,1.2C27,15.3,27.8,14.5,27.7,13.9z"/>
		<path class="st6" d="M16.2,20c0-2.1,1.8-3.9,4-3.9c2.1,0.1,3.5,1.6,3.8,3.3c0.2,1.3-0.2,2.5-1.2,3.5c-0.7,0.7-1.6,1-2.7,1
			C18,23.9,16.1,22.1,16.2,20z"/>
	</g>
</g>
</svg>
