<?xml version="1.0" encoding="utf-8"?>
<!-- Generator: Adobe Illustrator 23.0.1, SVG Export Plug-In . SVG Version: 6.00 Build 0)  -->
<svg version="1.1" id="Capa_1" xmlns="http://www.w3.org/2000/svg" xmlns:xlink="http://www.w3.org/1999/xlink" x="0px" y="0px"
	 viewBox="0 0 161.5 137.1" style="enable-background:new 0 0 161.5 137.1;" xml:space="preserve">
<style type="text/css">
	.st0{clip-path:url(#SVGID_2_);}
	.st1{clip-path:url(#SVGID_4_);}
	.st2{clip-path:url(#SVGID_6_);}
	.st3{clip-path:url(#SVGID_8_);}
	.st4{clip-path:url(#SVGID_10_);}
	.st5{fill:#46466E;}
	.st6{fill:#FFFFFF;}
	.st7{fill:#004732;}
	.st8{fill:#EFAF62;}
	.st9{clip-path:url(#SVGID_12_);}
	.st10{fill:#F1AB5D;}
	.st11{fill:#3CAE6C;}
	.st12{fill:url(#SVGID_13_);}
	.st13{fill:#49B2A5;}
	.st14{fill:#54EFA5;}
	.st15{fill:#FF914B;}
	.st16{fill:#E67332;}
	.st17{fill:#A93E37;}
	.st18{fill:#EC849E;}
	.st19{fill:url(#SVGID_14_);}
	.st20{fill-rule:evenodd;clip-rule:evenodd;fill:#A93E37;}
</style>
<polygon class="st7" points="35.3,18.2 41,18.2 44.5,7.8 39.8,4.2 "/>
<g>
	<polygon class="st14" points="0,52 14.8,63 67.9,63 67.9,11 55.5,0 55.5,51.8 	"/>
	<rect x="0.6" class="st6" width="55.5" height="52"/>
	<polygon class="st7" points="21,18.2 29,18.2 35.1,36.1 35.2,36.1 41,18.2 49.1,18.2 49.1,44.3 43.7,44.3 43.7,25.8 43.6,25.8 
		37.2,44.3 32.8,44.3 26.4,26 26.3,26 26.3,44.3 21,44.3 	"/>
	<polygon class="st14" points="29.6,122.9 43.9,137.1 161.5,137.1 161.5,71.3 148.8,58.6 148.8,122.8 	"/>
	<rect x="29.6" y="58.6" class="st6" width="119.2" height="64.3"/>
	<g>
		<g>
			<path class="st7" d="M37.3,66h2.4l4.2,10.2H44L48.2,66h2.4v13.1h-1.9v-9.5h-0.1l-3.9,9.5h-1.6l-3.9-9.5h-0.1v9.5h-1.9V66z"/>
			<path class="st7" d="M56.2,79.4c-0.6,0-1.2-0.1-1.7-0.3c-0.5-0.2-0.9-0.6-1.2-1s-0.4-1-0.4-1.6c0-0.6,0.1-1,0.3-1.4
				c0.2-0.4,0.5-0.6,0.9-0.9s0.8-0.4,1.2-0.5c0.4-0.1,0.9-0.2,1.4-0.2c0.6-0.1,1.1-0.1,1.4-0.2c0.4-0.1,0.6-0.1,0.8-0.2
				c0.2-0.1,0.3-0.3,0.2-0.5c0-0.6-0.2-1-0.5-1.3c-0.3-0.3-0.8-0.5-1.4-0.5c-0.6,0-1.2,0.1-1.5,0.4c-0.4,0.3-0.6,0.6-0.8,0.9
				l-1.8-0.4c0.2-0.6,0.5-1.1,0.9-1.5c0.4-0.4,0.9-0.6,1.4-0.8c0.5-0.2,1.1-0.3,1.7-0.3c0.4,0,0.8,0,1.2,0.1
				c0.4,0.1,0.9,0.3,1.2,0.5c0.4,0.2,0.7,0.6,1,1c0.2,0.5,0.4,1,0.4,1.8v6.5h-1.9v-1.3h-0.1c-0.1,0.2-0.3,0.5-0.6,0.7
				s-0.6,0.4-1,0.6S56.7,79.4,56.2,79.4z M56.6,77.9c0.5,0,1-0.1,1.4-0.3c0.4-0.2,0.7-0.5,0.9-0.8c0.2-0.3,0.3-0.7,0.3-1.1v-1.3
				c-0.1,0.1-0.2,0.1-0.4,0.2s-0.4,0.1-0.7,0.1s-0.5,0.1-0.7,0.1c-0.2,0-0.4,0.1-0.6,0.1c-0.4,0-0.7,0.1-1,0.2
				c-0.3,0.1-0.5,0.3-0.7,0.5c-0.2,0.2-0.3,0.5-0.3,0.8c0,0.5,0.2,0.8,0.5,1.1S56.1,77.9,56.6,77.9z M56.4,68.2l1.6-2.9h2.1
				l-2.1,2.9H56.4z"/>
			<path class="st7" d="M70.9,71.7L69.2,72c-0.1-0.2-0.2-0.4-0.3-0.6c-0.2-0.2-0.4-0.4-0.6-0.5s-0.6-0.2-1-0.2c-0.5,0-1,0.1-1.4,0.4
				s-0.5,0.6-0.5,0.9c0,0.3,0.1,0.6,0.4,0.8s0.6,0.4,1.2,0.5l1.6,0.4c1.8,0.4,2.7,1.3,2.7,2.7c0,0.6-0.2,1.1-0.5,1.6
				c-0.3,0.5-0.8,0.8-1.4,1.1c-0.6,0.3-1.3,0.4-2.1,0.4c-1.1,0-2-0.2-2.7-0.7c-0.7-0.5-1.1-1.1-1.3-2l1.9-0.3
				c0.1,0.5,0.4,0.8,0.7,1.1c0.4,0.2,0.8,0.4,1.4,0.4c0.6,0,1.1-0.1,1.5-0.4c0.4-0.3,0.6-0.6,0.6-1c0-0.3-0.1-0.6-0.3-0.8
				c-0.2-0.2-0.6-0.4-1-0.5l-1.7-0.4c-0.9-0.2-1.6-0.5-2-1c-0.4-0.5-0.7-1-0.7-1.7c0-0.6,0.2-1.1,0.5-1.5c0.3-0.4,0.8-0.8,1.3-1
				c0.6-0.2,1.2-0.4,2-0.4c1.1,0,1.9,0.2,2.5,0.7C70.3,70.3,70.7,71,70.9,71.7z"/>
		</g>
	</g>
	<g>
		<g>
			<path class="st7" d="M37.3,83.2h2.4l4.2,10.2H44l4.2-10.2h2.4v13.1h-1.9v-9.5h-0.1l-3.9,9.5h-1.6l-3.9-9.5h-0.1v9.5h-1.9V83.2z"
				/>
			<path class="st7" d="M56.2,96.5c-0.6,0-1.2-0.1-1.7-0.3c-0.5-0.2-0.9-0.6-1.2-1s-0.4-1-0.4-1.6c0-0.6,0.1-1,0.3-1.4
				c0.2-0.4,0.5-0.6,0.9-0.9s0.8-0.4,1.2-0.5c0.4-0.1,0.9-0.2,1.4-0.2c0.6-0.1,1.1-0.1,1.4-0.2c0.4-0.1,0.6-0.1,0.8-0.2
				c0.2-0.1,0.3-0.3,0.2-0.5c0-0.6-0.2-1-0.5-1.3c-0.3-0.3-0.8-0.5-1.4-0.5c-0.6,0-1.2,0.1-1.5,0.4c-0.4,0.3-0.6,0.6-0.8,0.9
				l-1.8-0.4c0.2-0.6,0.5-1.1,0.9-1.5c0.4-0.4,0.9-0.6,1.4-0.8c0.5-0.2,1.1-0.3,1.7-0.3c0.4,0,0.8,0,1.2,0.1
				c0.4,0.1,0.9,0.3,1.2,0.5c0.4,0.2,0.7,0.6,1,1c0.2,0.5,0.4,1,0.4,1.8v6.5h-1.9v-1.3h-0.1c-0.1,0.2-0.3,0.5-0.6,0.7
				s-0.6,0.4-1,0.6S56.7,96.5,56.2,96.5z M56.6,95c0.5,0,1-0.1,1.4-0.3c0.4-0.2,0.7-0.5,0.9-0.8c0.2-0.3,0.3-0.7,0.3-1.1v-1.3
				c-0.1,0.1-0.2,0.1-0.4,0.2s-0.4,0.1-0.7,0.1s-0.5,0.1-0.7,0.1c-0.2,0-0.4,0.1-0.6,0.1c-0.4,0-0.7,0.1-1,0.2
				c-0.3,0.1-0.5,0.3-0.7,0.5c-0.2,0.2-0.3,0.5-0.3,0.8c0,0.5,0.2,0.8,0.5,1.1S56.1,95,56.6,95z"/>
			<path class="st7" d="M72.1,96.3h-1.9v-1.5h-0.2c-0.1,0.2-0.3,0.4-0.5,0.7c-0.2,0.3-0.5,0.5-0.9,0.7c-0.4,0.2-0.9,0.3-1.5,0.3
				c-0.8,0-1.5-0.2-2.1-0.6c-0.6-0.4-1.1-1-1.5-1.8c-0.4-0.8-0.5-1.7-0.5-2.7s0.2-2,0.5-2.7c0.4-0.8,0.8-1.3,1.5-1.7
				c0.6-0.4,1.3-0.6,2.1-0.6c0.6,0,1.1,0.1,1.5,0.3s0.7,0.4,0.9,0.7c0.2,0.3,0.4,0.5,0.5,0.7h0.1v-4.9h1.9V96.3z M70.2,91.4
				c0-1-0.2-1.9-0.7-2.5c-0.4-0.6-1.1-0.9-1.9-0.9c-0.6,0-1.1,0.1-1.4,0.4c-0.4,0.3-0.7,0.7-0.9,1.2c-0.2,0.5-0.3,1.1-0.3,1.8
				c0,0.7,0.1,1.2,0.3,1.8c0.2,0.5,0.5,0.9,0.9,1.2c0.4,0.3,0.9,0.5,1.4,0.5c0.8,0,1.5-0.3,1.9-1S70.2,92.4,70.2,91.4z"/>
			<path class="st7" d="M74.7,96.3v-9.8h1.9V88h0.1c0.2-0.5,0.5-0.9,0.9-1.3c0.5-0.3,1-0.5,1.6-0.5c0.3,0,0.5,0,0.7,0.1
				c0.2,0.1,0.4,0.2,0.6,0.3l-0.6,1.6c-0.1-0.1-0.2-0.1-0.4-0.1s-0.3-0.1-0.5-0.1c-0.4,0-0.8,0.1-1.2,0.3c-0.3,0.2-0.6,0.5-0.8,0.8
				c-0.2,0.3-0.3,0.7-0.3,1.1v6H74.7z"/>
			<path class="st7" d="M83,85c-0.3,0-0.6-0.1-0.9-0.3c-0.2-0.2-0.4-0.5-0.4-0.8c0-0.3,0.1-0.6,0.4-0.8c0.2-0.2,0.5-0.3,0.9-0.3
				c0.3,0,0.6,0.1,0.9,0.3c0.2,0.2,0.4,0.5,0.4,0.8c0,0.3-0.1,0.6-0.4,0.8C83.6,84.9,83.3,85,83,85z M82,96.3v-9.8h1.9v9.8H82z"/>
			<path class="st7" d="M95,96.3h-1.9v-1.5H93c-0.1,0.2-0.3,0.4-0.5,0.7c-0.2,0.3-0.5,0.5-0.9,0.7c-0.4,0.2-0.9,0.3-1.5,0.3
				c-0.8,0-1.5-0.2-2.1-0.6c-0.6-0.4-1.1-1-1.5-1.8c-0.4-0.8-0.5-1.7-0.5-2.7s0.2-2,0.5-2.7c0.4-0.8,0.8-1.3,1.5-1.7
				c0.6-0.4,1.3-0.6,2.1-0.6c0.6,0,1.1,0.1,1.5,0.3s0.7,0.4,0.9,0.7c0.2,0.3,0.4,0.5,0.5,0.7h0.1v-4.9H95V96.3z M93.2,91.4
				c0-1-0.2-1.9-0.7-2.5c-0.4-0.6-1.1-0.9-1.9-0.9c-0.6,0-1.1,0.1-1.4,0.4c-0.4,0.3-0.7,0.7-0.9,1.2c-0.2,0.5-0.3,1.1-0.3,1.8
				c0,0.7,0.1,1.2,0.3,1.8c0.2,0.5,0.5,0.9,0.9,1.2c0.4,0.3,0.9,0.5,1.4,0.5c0.8,0,1.5-0.3,1.9-1S93.2,92.4,93.2,91.4z"/>
		</g>
	</g>
</g>
</svg>
