<?xml version="1.0" encoding="utf-8"?>
<!-- Generator: Adobe Illustrator 23.0.1, SVG Export Plug-In . SVG Version: 6.00 Build 0)  -->
<svg version="1.1" id="Capa_1" xmlns="http://www.w3.org/2000/svg" xmlns:xlink="http://www.w3.org/1999/xlink" x="0px" y="0px"
	 viewBox="0 0 40.4 40.4" style="enable-background:new 0 0 40.4 40.4;" xml:space="preserve">
<style type="text/css">
	.st0{clip-path:url(#SVGID_2_);}
	.st1{clip-path:url(#SVGID_4_);}
	.st2{clip-path:url(#SVGID_6_);}
	.st3{clip-path:url(#SVGID_8_);}
	.st4{clip-path:url(#SVGID_10_);}
	.st5{fill:#46466E;}
	.st6{fill:#FFFFFF;}
	.st7{fill:#004732;}
	.st8{fill:#EFAF62;}
	.st9{clip-path:url(#SVGID_12_);}
	.st10{fill:#F1AB5D;}
	.st11{fill:#3CAE6C;}
	.st12{fill:url(#SVGID_13_);}
	.st13{fill:#49B2A5;}
	.st14{fill:#54EFA5;}
	.st15{fill:#FF914B;}
	.st16{fill:#E67332;}
	.st17{fill:#A93E37;}
	.st18{fill:#EC849E;}
	.st19{fill:url(#SVGID_14_);}
	.st20{fill-rule:evenodd;clip-rule:evenodd;fill:#A93E37;}
</style>
<g id="T1gm1t.tif_2_">
	<g>
		<path class="st6" d="M20.2,0c11.1,0,20.2,9,20.2,20.2c0.1,11.1-9,20.2-20.2,20.2C9,40.4,0,31.4,0,20.2C0,9,9,0,20.2,0z M8.3,29
			c0,0.1,0,0.1,0.1,0.1c0.1,0,0.1,0.1,0.2,0.1c4.5,2.5,9.1,2.8,13.7,0.6c5.4-2.7,8-7.3,8.1-13.3c0-0.3,0.1-0.5,0.4-0.8
			c0.8-0.6,1.5-1.4,2.1-2.3c-0.4,0.1-0.7,0.2-0.9,0.3c-0.3,0.1-0.6,0.2-0.9,0.2c-0.3,0.1-0.6,0.1-0.8,0.1c0.9-0.7,1.6-1.6,2-2.6
			c-0.9,0.3-1.8,0.6-2.7,1c-0.3,0.1-0.5,0.1-0.8-0.2c-1.6-1.5-4-1.7-5.9-0.7c-1.9,1-2.9,3.1-2.6,5.3c0,0.1,0,0.2,0,0.3
			c-4.2-0.3-7.7-2.1-10.4-5.3c-0.5,0.9-0.7,1.8-0.7,2.7c0.1,1.7,0.8,3,2.1,4c0,0,0,0.1-0.1,0.1c-0.7-0.2-1.4-0.4-2.1-0.6
			c-0.1,2.1,1.2,3.9,3.9,5c-0.7,0-1.4,0-2.2,0c0.9,2.2,2.4,3.3,4.7,3.6C13.4,28.6,11,29.2,8.3,29z"/>
	</g>
</g>
</svg>
