<?xml version="1.0" encoding="utf-8"?>
<!-- Generator: Adobe Illustrator 22.0.0, SVG Export Plug-In . SVG Version: 6.00 Build 0)  -->
<svg version="1.1" id="Capa_1" xmlns="http://www.w3.org/2000/svg" xmlns:xlink="http://www.w3.org/1999/xlink" x="0px" y="0px"
	 viewBox="0 0 40 40" style="enable-background:new 0 0 40 40;" xml:space="preserve">
<style type="text/css">
	.st0{fill:#FFFFFF;}
</style>
<path class="st0" d="M20,0C8.9,0,0,9,0,20s9,20,20,20s20-9,20-20S31,0,20,0z M20.4,31.6C20.4,31.6,20.4,31.6,20.4,31.6L20.4,31.6
	c-2,0-4-0.5-5.7-1.5l-6.3,1.7l1.7-6.2c-1-1.8-1.6-3.9-1.6-6c0-6.6,5.4-12,12-12c3.2,0,6.2,1.2,8.5,3.5c2.3,2.3,3.5,5.3,3.5,8.5
	C32.4,26.3,27,31.6,20.4,31.6z"/>
<path class="st0" d="M20.4,9.8c-5.5,0-10,4.5-10,9.9c0,1.9,0.5,3.7,1.5,5.3l0.2,0.4l-1,3.7l3.8-1l0.4,0.2c1.5,0.9,3.3,1.4,5.1,1.4h0
	c5.5,0,9.9-4.5,9.9-9.9c0-2.7-1-5.2-2.9-7S23.1,9.8,20.4,9.8z M26.3,24c-0.2,0.7-1.4,1.3-2,1.4c-0.5,0.1-1.2,0.1-1.9-0.1
	c-0.4-0.1-1-0.3-1.7-0.6c-3-1.3-5-4.3-5.1-4.5s-1.2-1.6-1.2-3.1c0-1.5,0.8-2.2,1-2.5c0.3-0.3,0.6-0.4,0.8-0.4s0.4,0,0.6,0
	c0.2,0,0.4-0.1,0.7,0.5c0.2,0.6,0.8,2.1,0.9,2.2c0.1,0.1,0.1,0.3,0,0.5c-0.1,0.2-0.4,0.6-0.7,1c-0.1,0.2-0.3,0.3-0.1,0.6
	c0.2,0.3,0.8,1.3,1.7,2.1c1.1,1,2.1,1.3,2.4,1.5c0.3,0.1,0.5,0.1,0.6-0.1c0.2-0.2,0.7-0.9,0.9-1.2s0.4-0.2,0.7-0.1
	c0.3,0.1,1.7,0.8,2,1c0.3,0.1,0.5,0.2,0.6,0.3C26.5,22.7,26.5,23.3,26.3,24z"/>
</svg>
