<?xml version="1.0" encoding="utf-8"?>
<!-- Generator: Adobe Illustrator 23.0.1, SVG Export Plug-In . SVG Version: 6.00 Build 0)  -->
<svg version="1.1" id="Capa_1" xmlns="http://www.w3.org/2000/svg" xmlns:xlink="http://www.w3.org/1999/xlink" x="0px" y="0px"
	 viewBox="0 0 165.6 75.3" style="enable-background:new 0 0 165.6 75.3;" xml:space="preserve">
<style type="text/css">
	.st0{clip-path:url(#SVGID_2_);}
	.st1{clip-path:url(#SVGID_4_);}
	.st2{clip-path:url(#SVGID_6_);}
	.st3{clip-path:url(#SVGID_8_);}
	.st4{clip-path:url(#SVGID_10_);}
	.st5{fill:#46466E;}
	.st6{fill:#FFFFFF;}
	.st7{fill:#004732;}
	.st8{fill:#EFAF62;}
	.st9{clip-path:url(#SVGID_12_);}
	.st10{fill:#F1AB5D;}
	.st11{fill:#3CAE6C;}
	.st12{fill:url(#SVGID_13_);}
	.st13{fill:#49B2A5;}
	.st14{fill:#54EFA5;}
	.st15{fill:#FF914B;}
	.st16{fill:#E67332;}
	.st17{fill:#A93E37;}
	.st18{fill:#EC849E;}
	.st19{fill:url(#SVGID_14_);}
	.st20{fill-rule:evenodd;clip-rule:evenodd;fill:#A93E37;}
</style>
<path class="st14" d="M141.6,75h3.5V57.9h-3.5V75z M37.5,26.1L44,6.8L35.2,0l-8.2,26.1H37.5z M42.6,75h10.1V26.1H37.5L26.7,59.7
	h-0.1L15.1,26.1H0V75h10.1V40.7h0.1l12,34.3h8.3l12-34.6h0.1V75z M84.1,47.7h3.5V26.1h-3.9l-7.3,14l-7.3-14h-4v21.6h3.5V32.3
	l6.5,12.3h2.4l6.6-12.4V47.7z M84.1,75h3.5V53.4h-3.9l-7.3,14l-7.3-14h-4V75h3.5V59.6l6.5,12.3h2.4l6.6-12.4V75z M99.6,29.2l4.5-5.3
	h-4.3l-3,5.3H99.6z M102.6,40.1c-0.1,1.5-0.6,2.7-1.5,3.6c-0.9,1-2,1.4-3.3,1.4c-1,0-1.7-0.2-2.3-0.7c-0.6-0.5-0.9-1.1-0.9-1.9
	c0-1.7,1.2-2.5,3.6-2.5H102.6z M102.6,47.7h3.5v-10c0-2.4-0.6-4.2-1.9-5.5c-1.3-1.3-3.1-1.9-5.3-1.9c-2.2,0-3.9,0.6-5.2,1.8
	c-1.3,1.2-2.1,2.7-2.3,4.7H95c0.5-2.2,1.7-3.3,3.8-3.3c2.4,0,3.7,1.5,3.8,4.5h-4.4c-2.5,0-4.3,0.5-5.5,1.4c-1.2,0.9-1.8,2.2-1.8,3.7
	c0,1.6,0.6,2.9,1.7,3.8c1.1,0.9,2.5,1.4,4.1,1.4c1.3,0,2.4-0.3,3.5-1c1.1-0.7,1.8-1.5,2.3-2.5V47.7z M102.6,67.5
	c-0.1,1.5-0.6,2.7-1.5,3.6c-0.9,1-2,1.4-3.3,1.4c-1,0-1.7-0.2-2.3-0.7c-0.6-0.5-0.9-1.1-0.9-1.9c0-1.7,1.2-2.5,3.6-2.5H102.6z
	 M102.6,75h3.5v-10c0-2.4-0.6-4.2-1.9-5.5c-1.3-1.3-3.1-1.9-5.3-1.9c-2.2,0-3.9,0.6-5.2,1.7c-1.3,1.2-2.1,2.7-2.3,4.7H95
	c0.5-2.2,1.7-3.3,3.8-3.3c2.4,0,3.7,1.5,3.8,4.5h-4.4c-2.5,0-4.3,0.5-5.5,1.4c-1.2,0.9-1.8,2.2-1.8,3.7c0,1.6,0.6,2.9,1.7,3.8
	c1.1,0.9,2.5,1.4,4.1,1.4c1.3,0,2.4-0.3,3.5-1c1.1-0.7,1.8-1.5,2.3-2.5V75z M112.5,35c0-0.6,0.2-1,0.7-1.4c0.5-0.4,1.1-0.5,2-0.5
	c0.9,0,1.7,0.3,2.3,0.9c0.6,0.6,1,1.4,1.1,2.4h3.4c-0.2-2-0.9-3.5-2.1-4.5c-1.2-1-2.8-1.6-4.7-1.6c-1.9,0-3.4,0.5-4.5,1.4
	c-1.1,1-1.7,2.1-1.7,3.5c0,1.2,0.3,2.2,1,2.9c0.7,0.7,1.5,1.2,2.5,1.5c1,0.3,1.9,0.5,2.9,0.7c1,0.2,1.8,0.5,2.5,1c0.7,0.4,1,1,1,1.8
	c0,0.6-0.3,1.1-0.8,1.5c-0.5,0.4-1.3,0.6-2.2,0.6c-1.1,0-2-0.3-2.7-0.8c-0.6-0.6-1-1.4-1.1-2.4h-3.5c0.1,1.9,0.9,3.5,2.2,4.5
	c1.3,1.1,3,1.6,5.1,1.6c2,0,3.6-0.5,4.8-1.4c1.2-1,1.8-2.2,1.8-3.8c0-1.2-0.3-2.3-1-3c-0.7-0.8-1.5-1.3-2.5-1.6
	c-1-0.3-1.9-0.5-2.9-0.7c-1-0.2-1.8-0.5-2.5-0.8C112.8,36.2,112.5,35.7,112.5,35 M122.5,66.4c0,1.7-0.5,3.1-1.4,4.2
	c-0.9,1.1-2.2,1.7-3.7,1.7s-2.8-0.5-3.7-1.6c-0.9-1.1-1.3-2.5-1.3-4.2c0-1.7,0.4-3.1,1.3-4.2c0.9-1.1,2.1-1.6,3.7-1.6
	c1.6,0,2.8,0.5,3.7,1.7C122,63.4,122.5,64.7,122.5,66.4 M122.5,75h3.5V51.5h-3.5v9.1c-1.2-2.1-3.1-3.1-5.7-3.1
	c-2.5,0-4.5,0.8-5.9,2.4c-1.5,1.6-2.2,3.8-2.2,6.4c0,2.6,0.7,4.8,2.2,6.4c1.5,1.6,3.4,2.4,5.9,2.4c2.5,0,4.4-1.1,5.7-3.2V75z
	 M137.3,61.2c0.7,0,1.3,0.2,1.8,0.5V58c-0.2-0.3-0.7-0.4-1.4-0.4c-1.7,0-3.1,1-4,2.9v-2.6h-3.5V75h3.5v-9.1
	C133.7,62.8,134.9,61.2,137.3,61.2 M145,55.3c0.4-0.4,0.6-1,0.6-1.6c0-0.6-0.2-1.2-0.6-1.6c-0.4-0.4-0.9-0.6-1.6-0.6
	c-0.6,0-1.2,0.2-1.6,0.6c-0.4,0.4-0.6,1-0.6,1.6c0,0.6,0.2,1.2,0.6,1.6c0.4,0.4,1,0.6,1.6,0.6C144.1,55.9,144.6,55.7,145,55.3
	 M162.1,66.4c0,1.7-0.5,3.1-1.4,4.2c-0.9,1.1-2.2,1.7-3.7,1.7c-1.6,0-2.8-0.5-3.7-1.6c-0.9-1.1-1.3-2.5-1.3-4.2
	c0-1.7,0.4-3.1,1.3-4.2c0.9-1.1,2.1-1.6,3.7-1.6c1.6,0,2.8,0.5,3.7,1.7C161.6,63.4,162.1,64.7,162.1,66.4 M165.6,75V51.5h-3.5v9.1
	c-1.2-2.1-3.1-3.1-5.7-3.1c-2.5,0-4.5,0.8-5.9,2.4c-1.5,1.6-2.2,3.8-2.2,6.4c0,2.6,0.7,4.8,2.2,6.4c1.5,1.6,3.4,2.4,5.9,2.4
	c2.5,0,4.4-1.1,5.7-3.2V75H165.6z"/>
</svg>
